#N canvas 336 22 1218 827 10;
#X declare -lib mrpeach;
#X obj -348 -444 import mrpeach;
#X obj -290 -393 udpreceive 9003;
#X obj -290 -358 unpackOSC;
#X text -37 -228 This is the master clock;
#X obj -117 -257 tgl 15 0 empty empty empty 17 7 0 10 -262144 -1 -1
1 1;
#X obj -117 -199 f;
#X obj -80 -199 + 1;
#X obj -116 -227 metro 220;
#X obj -118 -154 hradio 11 1 0 64 empty empty empty 0 -8 0 10 -262144
-1 -1 11;
#X obj -117 -175 mod 64;
#X obj -13 -266 print;
#X obj 270 -107 select 0 31;
#X obj 270 -6 packOSC;
#X msg 273 -80 1;
#X text 390 -84 This sends a notification that the buffer is switched
;
#N canvas 483 380 711 599 mellosynth_buffer 0;
#N canvas 0 22 450 278 (subpatch) 0;
#X array midivalue 64 float 3;
#A 0 64 55 64 62 62 60 60 62 55 62 64 55 64 64 64 64 55 64 62 55 62
62 62 62 55 62 64 55 64 67 67 83 84 85 86 87 88 89 0 1 2 3 4 5 6 7
8 9 10 11 12 13 14 15 16 27 44 45 46 47 6 49 25 30;
#X coords 0 127 63 0 200 140 1 0 0;
#X restore 497 36 graph;
#N canvas 0 22 450 278 (subpatch) 0;
#X array velocity 64 float 3;
#A 0 9.76207 11.1907 11.905 13.3335 14.7621 15.7145 16.6669 17.6193
18.3336 18.6908 19.0479 19.7622 20.4765 20.4765 20.4765 20.8336 21.1908
21.1908 21.1908 21.1908 21.1908 21.1908 21.1908 21.1908 21.1908 21.1908
21.1908 21.1908 21.1908 21.1908 21.1908 21.1908 21.1908 21.1908 21.1908
21.1908 20.4765 20.4765 20.4765 19.7622 19.7622 19.405 19.0479 19.0479
18.3336 18.3336 17.6193 16.905 16.1907 15.4764 14.7621 11.905 11.1907
9.76207 9.04778 8.33348 8.33348 7.61919 7.61919 7.61919 7.61919 7.61919
7.61919 7.61919;
#X coords 0 100 63 0 200 140 1 0 0;
#X restore 496 202 graph;
#N canvas 0 22 450 278 (subpatch) 0;
#X array Harmonicity-Env 64 float 3;
#A 0 0.250711 0.244282 0.276425 0.314996 0.327852 0.327852 0.289282
0.269996 0.237854 0.269996 0.334281 0.353566 0.340709 0.321424 0.263568
0.224997 0.205711 0.237854 0.314996 0.37928 0.37928 0.359995 0.327852
0.29571 0.250711 0.224997 0.199283 0.179997 0.276425 0.314996 0.334281
0.314996 0.289282 0.263568 0.237854 0.21214 0.192854 0.173569 0.199283
0.29571 0.314996 0.308567 0.29571 0.282853 0.269996 0.250711 0.224997
0.314996 0.321424 0.321424 0.314996 0.29571 0.276425 0.250711 0.372852
0.340709 0.263568 0.385709 0.385709 0.37928 0.359995 0.308567 0.314996
0.340709;
#X coords 0 0.9 63 0 200 140 1 0 0;
#X restore 497 378 graph;
#X obj 104 17 inlet;
#X obj 46 556 outlet;
#X obj 168 558 outlet;
#X obj 250 551 outlet;
#X obj 20 17 inlet;
#X text 16 0 Bang event;
#X text 82 -2 index to play;
#X text 178 -3 set midi;
#X obj 44 354 tabread midivalue;
#X obj 161 386 tabread velocity;
#X obj 250 419 tabread Harmonicity-Env;
#X obj 188 52 routeOSC /midivalue /velocity /he;
#X obj 188 17 inlet;
#X obj 189 96 routeOSC /value /index;
#X obj 190 149 tabwrite midivalue;
#X obj 220 185 routeOSC /value /index;
#X obj 314 278 routeOSC /value /index;
#X obj 312 331 tabwrite midivalue;
#X obj 227 236 tabwrite velocity;
#X obj 406 142 print;
#X connect 3 0 11 0;
#X connect 3 0 12 0;
#X connect 3 0 13 0;
#X connect 7 0 11 0;
#X connect 7 0 12 0;
#X connect 7 0 13 0;
#X connect 11 0 4 0;
#X connect 12 0 5 0;
#X connect 13 0 6 0;
#X connect 14 0 16 0;
#X connect 14 1 18 0;
#X connect 14 2 19 0;
#X connect 15 0 14 0;
#X connect 16 0 17 0;
#X connect 16 1 17 1;
#X connect 18 0 21 0;
#X connect 18 1 21 1;
#X connect 19 0 20 0;
#X connect 19 1 20 1;
#X restore -246 163 pd mellosynth_buffer;
#X obj -218 226 mellosynth;
#X obj -103 358 dac~;
#N canvas 581 57 614 384 drum_buffer 0;
#X obj 35 24 inlet;
#X obj 128 21 inlet;
#X obj 40 201 outlet;
#X text 114 1 index to play;
#N canvas 0 22 450 278 (subpatch) 0;
#X array drumbars 64 float 3;
#A 0 1 0 1 0 1 0 1 0 1 0 1 0 1 0 1 0 1 0 1 0 1 0 1 0 1 0 1 0 1 0 1
0 1 0 1 0 1 0 1 0 1 0 1 0 1 0 1 0 1 0 1 0 1 0 1 0 1 0 1 0 1 0 1 0;
#X coords 0 2 63 0 200 140 1 0 0;
#X restore 355 21 graph;
#X obj 221 23 inlet;
#X text 210 3 set drumbars;
#X text 21 3 bang receive;
#X obj 40 108 tabread drumbars;
#X obj 40 149 select 1;
#X obj 187 104 routeOSC /drumbars;
#X obj 186 185 tabwrite drumbars;
#X obj 187 145 routeOSC /value /index;
#X floatatom 140 78 5 0 0 0 - - -;
#X floatatom 95 180 5 0 0 0 - - -;
#X obj 116 215 bng 15 250 50 0 empty empty empty 17 7 0 10 -262144
-1 -1;
#X connect 1 0 8 0;
#X connect 1 0 13 0;
#X connect 5 0 10 0;
#X connect 8 0 9 0;
#X connect 9 0 2 0;
#X connect 9 0 14 0;
#X connect 9 0 15 0;
#X connect 10 0 12 0;
#X connect 12 0 11 0;
#X connect 12 1 11 1;
#X restore -97 162 pd drum_buffer;
#X obj -96 228 kick;
#N canvas 802 64 638 360 snare_buffer 0;
#X obj 45 34 inlet;
#X obj 138 31 inlet;
#X obj 50 211 outlet;
#X text 124 11 index to play;
#N canvas 0 22 450 278 (subpatch) 0;
#X array snarebars 64 float 3;
#A 0 1 0 0 0 0 1 0 0 0 0 1 0 0 0 0 1 0 0 0 0 1 0 0 0 0 1 0 0 0 0 1
0 0 0 0 1 0 0 0 0 1 0 0 0 0 1 0 0 0 0 1 0 0 0 0 1 0 0 0 0 0 1 0 0;
#X coords 0 2 63 0 200 140 1 0 0;
#X restore 365 31 graph;
#X obj 231 33 inlet;
#X text 220 13 set drumbars;
#X text 31 13 bang receive;
#X obj 50 159 select 1;
#X obj 197 155 routeOSC /value /index;
#X obj 50 118 tabread snarebars;
#X obj 197 113 routeOSC /snarebars;
#X obj 196 195 tabwrite snarebars;
#X obj 114 201 bng 15 250 50 0 empty empty empty 17 7 0 10 -262144
-1 -1;
#X connect 1 0 10 0;
#X connect 5 0 11 0;
#X connect 8 0 2 0;
#X connect 8 0 13 0;
#X connect 9 0 12 0;
#X connect 9 1 12 1;
#X connect 10 0 8 0;
#X connect 11 0 9 0;
#X restore 7 162 pd snare_buffer;
#X text 29 -269 comment;
#X text 74 -187 There are two primary buffers 0-31 32-63 \, pure data
plays one half while notes are loaded to the other half;
#X text -146 189 The buffer contains instrument events to be played
\, sync messages are sent to change the values;
#X floatatom -339 206 5 0 0 0 - - -;
#X floatatom -308 239 5 0 0 0 - - -;
#X floatatom -273 275 5 0 0 0 - - -;
#X obj 4 227 snare-wt~;
#X obj -125 -80 routeOSC /mellosynth_buffer /drum_buffer /snare_buffer
;
#X obj -289 -319 routeOSC /async /sync /start /tempo;
#X obj -102 297 *~ 0.8;
#X obj -169 260 *~ 0.02;
#X obj -96 258 *~ 2;
#X obj -23 276 *~ 1;
#X obj -104 329 lop~;
#X obj 40 310 hsl 128 15 0 1000 0 0 empty empty empty -2 -8 0 10 -262144
-1 -1 9000 1;
#X obj 250 258 packOSC;
#X obj 435 260 packOSC;
#X msg 250 229 send /percussion s "kick";
#X obj 287 159 packOSC;
#X text 292 72 send m1 to leap-thing;
#X text 277 197 send kick to leap-thing;
#X text 486 205 send snare to leap-thing;
#X obj 528 -256 t b f;
#X obj 290 93 pack 0 0 0;
#X msg 439 226 send /percussion s "snare";
#X obj 343 314 udpsend;
#X msg 360 -246 connect localhost 13371;
#X msg 289 125 send /minstruments "m1" \$1 \$2 \$3;
#X obj -306 -63 routeOSC /hue;
#X obj 487 70 print;
#X msg 313 -81 2;
#X obj 271 -57 pack 0;
#X msg 283 -297 connect localhost 9005;
#X obj 271 23 udpsend;
#X msg 272 -35 send /mbn \$1;
#X obj 36 -330 print;
#X text 329 -313 python;
#X text 397 -267 leap-thing java;
#X text 98 -429 to start: first click all the connects. Then move the
slider at he bottom to the right(the one next to the lop lowpass filter)
then click on the box above the metronome "metro";
#X obj -177 -292 select 1;
#X connect 1 0 2 0;
#X connect 2 0 29 0;
#X connect 4 0 7 0;
#X connect 5 0 6 0;
#X connect 5 0 9 0;
#X connect 6 0 5 1;
#X connect 7 0 5 0;
#X connect 8 0 11 0;
#X connect 8 0 15 1;
#X connect 8 0 18 1;
#X connect 8 0 20 1;
#X connect 9 0 8 0;
#X connect 11 0 13 0;
#X connect 11 1 51 0;
#X connect 12 0 54 0;
#X connect 13 0 52 0;
#X connect 15 0 16 0;
#X connect 15 0 24 0;
#X connect 15 0 44 0;
#X connect 15 1 16 1;
#X connect 15 1 25 0;
#X connect 15 1 44 1;
#X connect 15 2 26 0;
#X connect 15 2 44 2;
#X connect 16 0 31 0;
#X connect 16 1 31 0;
#X connect 18 0 19 0;
#X connect 18 0 38 0;
#X connect 18 0 45 0;
#X connect 19 0 32 0;
#X connect 20 0 27 0;
#X connect 27 0 33 0;
#X connect 28 0 15 2;
#X connect 28 1 18 2;
#X connect 28 2 20 2;
#X connect 29 0 49 0;
#X connect 29 1 28 0;
#X connect 29 2 60 0;
#X connect 29 2 56 0;
#X connect 29 3 7 1;
#X connect 29 4 10 0;
#X connect 30 0 34 0;
#X connect 31 0 30 0;
#X connect 32 0 30 0;
#X connect 33 0 30 0;
#X connect 34 0 17 0;
#X connect 34 0 17 1;
#X connect 35 0 34 1;
#X connect 36 0 46 0;
#X connect 37 0 46 0;
#X connect 38 0 36 0;
#X connect 39 0 46 0;
#X connect 44 0 48 0;
#X connect 45 0 37 0;
#X connect 47 0 46 0;
#X connect 48 0 39 0;
#X connect 49 1 16 2;
#X connect 51 0 52 0;
#X connect 52 0 55 0;
#X connect 53 0 54 0;
#X connect 55 0 12 0;
#X connect 55 0 50 0;
#X connect 60 0 4 0;
