#N canvas 531 26 1367 833 10;
#X declare -lib mrpeach;
#X declare -lib mrpeach;
#X declare -lib mrpeach;
#X declare -lib mrpeach;
#X declare -lib mrpeach;
#X declare -lib mrpeach;
#X declare -lib mrpeach;
#X declare -lib mrpeach;
#X declare -lib mrpeach;
#X declare -lib mrpeach;
#X declare -lib mrpeach;
#X declare -lib mrpeach;
#X declare -lib mrpeach;
#X declare -lib mrpeach;
#X declare -lib mrpeach;
#X declare -lib mrpeach;
#X declare -lib mrpeach;
#X obj -346 -419 import mrpeach;
#X obj -345 -344 unpackOSC;
#X obj -323 -70 metro;
#X obj -323 -97 tgl 15 0 empty empty empty 17 7 0 10 -262144 -1 -1
0 1;
#X obj -289 -236 f;
#X floatatom -274 -175 5 0 0 0 - - -;
#X msg -220 -169 0;
#X obj -338 32 udpsend;
#X obj -338 62 tgl 15 0 empty empty empty 17 7 0 10 -262144 -1 -1 0
1;
#X text -315 62 connected;
#X text -323 8 leap sink;
#X msg -345 -260 connect localhost 13371;
#X obj -345 -379 udpreceive 9049;
#X obj -298 -32 common/channel_routing;
#X text -284 -49 clock;
#X obj -93 11 ctlout;
#X text 63 25 should be (value \, type \, channel);
#X obj 539 -278 ctlout;
#X obj 582 -166 pgmout;
#X obj 770 -277 noteout;
#X msg 781 -319 63 100 0;
#X msg 851 -302 63 0 0;
#X msg 537 -357 127 7 0;
#X msg 641 -364 0 0 0;
#X msg 668 -337 0 32 0;
#X msg 832 -390 127 7 1;
#X obj 866 -337 ctlout;
#X msg 938 -380 0 32 1;
#X msg 906 -411 0 0 1;
#X obj 590 -76 ctlout;
#X msg 523 -130 127 7 2;
#X msg 613 -114 0 32 2;
#X msg 609 -144 0 0 2;
#X obj 766 -65 ctlout;
#X obj 931 -44 ctlout;
#X obj 569 68 ctlout;
#X msg 704 -125 127 7 3;
#X msg 790 -139 0 0 3;
#X msg 794 -109 0 32 3;
#X msg 865 -110 127 7 4;
#X msg 951 -124 0 0 4;
#X msg 955 -94 0 32 4;
#X msg 531 18 127 7 5;
#X msg 617 4 0 0 5;
#X msg 621 34 0 32 5;
#X obj 720 71 ctlout;
#X msg 768 7 0 0 6;
#X msg 772 37 0 32 6;
#X msg 682 21 127 7 6;
#X obj 896 75 ctlout;
#X msg 858 25 127 7 7;
#X msg 944 11 0 0 7;
#X msg 948 41 0 32 7;
#X msg 707 -224 48 3;
#X msg 780 -223 11 4;
#X msg 823 -211 87 5;
#X msg 901 -207 38 6;
#X obj -95 -84 pack f f f;
#X obj -67 -14 print sb_v_t_c;
#X obj -101 -208 routeOSC;
#X obj -101 -164 unpack s f f f;
#X obj -101 -36 list-rev;
#X obj 94 -11 pgmout;
#X obj 64 -203 routeOSC;
#X obj 65 -164 unpack s f f;
#X floatatom 119 -92 5 0 0 0 - - -;
#X text 122 -43 should be value channel;
#X obj 84 -114 pack f f;
#X obj -345 -309 routeOSC /startprogram /ms_per_tick /sync /async /control
/prgm;
#X obj 72 -62 list-rev;
#X obj 175 -15 print PCsb_v_c;
#X msg 525 -229 24 3;
#X msg 586 -235 40 2;
#X msg 634 -230 6 1;
#X obj -314 -148 vradio 15 1 0 2 empty empty empty 0 -8 0 10 -262144
-1 -1 0;
#X obj -289 -205 t b f b;
#X obj -309 -178 1;
#X connect 1 0 68 0;
#X connect 2 0 13 0;
#X connect 3 0 2 0;
#X connect 4 0 75 0;
#X connect 5 0 2 1;
#X connect 6 0 13 1;
#X connect 7 0 8 0;
#X connect 11 0 7 0;
#X connect 12 0 1 0;
#X connect 13 1 74 0;
#X connect 20 0 19 0;
#X connect 21 0 19 0;
#X connect 22 0 17 0;
#X connect 23 0 17 0;
#X connect 24 0 17 0;
#X connect 25 0 26 0;
#X connect 27 0 26 0;
#X connect 28 0 26 0;
#X connect 30 0 29 0;
#X connect 31 0 29 0;
#X connect 32 0 29 0;
#X connect 36 0 33 0;
#X connect 37 0 33 0;
#X connect 38 0 33 0;
#X connect 39 0 34 0;
#X connect 40 0 34 0;
#X connect 41 0 34 0;
#X connect 42 0 35 0;
#X connect 43 0 35 0;
#X connect 44 0 35 0;
#X connect 46 0 45 0;
#X connect 47 0 45 0;
#X connect 48 0 45 0;
#X connect 50 0 49 0;
#X connect 51 0 49 0;
#X connect 52 0 49 0;
#X connect 53 0 18 0;
#X connect 54 0 18 0;
#X connect 55 0 18 0;
#X connect 56 0 18 0;
#X connect 57 0 61 0;
#X connect 59 0 60 0;
#X connect 60 1 57 0;
#X connect 60 2 57 1;
#X connect 60 3 57 2;
#X connect 61 0 15 0;
#X connect 61 0 58 0;
#X connect 63 0 64 0;
#X connect 64 1 67 0;
#X connect 64 2 67 1;
#X connect 67 0 69 0;
#X connect 68 0 11 0;
#X connect 68 1 4 0;
#X connect 68 2 13 2;
#X connect 68 4 59 0;
#X connect 68 5 63 0;
#X connect 69 0 62 0;
#X connect 69 0 70 0;
#X connect 71 0 18 0;
#X connect 72 0 18 0;
#X connect 73 0 18 0;
#X connect 74 0 3 0;
#X connect 75 0 76 0;
#X connect 75 1 5 0;
#X connect 75 2 6 0;
#X connect 76 0 74 0;
