#N canvas 152 63 1367 833 10;
#X declare -lib mrpeach;
#X declare -lib mrpeach;
#X declare -lib mrpeach;
#X declare -lib mrpeach;
#X declare -lib mrpeach;
#X declare -lib mrpeach;
#X declare -lib mrpeach;
#X declare -lib mrpeach;
#X declare -lib mrpeach;
#X obj -338 -434 import mrpeach;
#X obj -131 -362 unpackOSC;
#X obj -131 -272 metro;
#X obj -131 -298 tgl 15 0 empty empty empty 17 7 0 10 -262144 -1 -1
1 1;
#X obj -131 -327 routeOSC /start /ms_per_tick /async /sync /control
;
#X obj -133 156 dac~;
#X obj -72 -299 f;
#X floatatom -72 -255 5 0 0 0 - - -;
#N canvas 146 372 1440 828 channels 0;
#X text 825 8 counter;
#X obj 837 27 inlet;
#X obj 836 133 f;
#X obj 883 132 + 1;
#X obj 837 60 bng 15 250 50 0 empty empty empty 17 7 0 10 -262144 -1
-1;
#X obj 909 27 inlet;
#X text 903 6 bang for reset;
#X msg 946 93 0;
#X obj 1028 28 inlet;
#X text 1022 7 set values;
#X obj 1083 40 routeOSC /c1 /c2 /c3 /c4 /c5 /c6 /c7 /c8 /c9 /c10 /c11
/c12 /c13 /c14 /c15 /c16;
#X obj 832 336 common/channel;
#X obj 1155 836 outlet~;
#X obj 1365 826 outlet;
#X text 1185 815 sound out;
#X text 1372 805 send objects;
#X obj 1112 336 common/channel;
#X obj 1017 334 common/channel;
#X obj 926 335 common/channel;
#X obj 1208 335 common/channel;
#X obj 1488 335 common/channel;
#X obj 1393 333 common/channel;
#X obj 1302 334 common/channel;
#X connect 1 0 4 0;
#X connect 2 0 3 0;
#X connect 2 0 11 0;
#X connect 2 0 16 0;
#X connect 2 0 17 0;
#X connect 2 0 18 0;
#X connect 2 0 19 0;
#X connect 2 0 20 0;
#X connect 2 0 21 0;
#X connect 2 0 22 0;
#X connect 3 0 2 1;
#X connect 4 0 2 0;
#X connect 5 0 7 0;
#X connect 7 0 2 1;
#X connect 7 0 11 1;
#X connect 7 0 16 1;
#X connect 7 0 17 1;
#X connect 7 0 18 1;
#X connect 7 0 19 1;
#X connect 7 0 20 1;
#X connect 7 0 21 1;
#X connect 7 0 22 1;
#X connect 8 0 10 0;
#X connect 10 0 11 2;
#X connect 10 1 18 2;
#X connect 10 2 17 2;
#X connect 10 3 16 2;
#X connect 10 4 19 2;
#X connect 10 5 22 2;
#X connect 10 6 21 2;
#X connect 10 7 20 2;
#X connect 11 0 12 0;
#X connect 11 1 13 0;
#X connect 16 0 12 0;
#X connect 16 1 13 0;
#X connect 17 0 12 0;
#X connect 17 1 13 0;
#X connect 18 0 12 0;
#X connect 18 1 13 0;
#X connect 19 0 12 0;
#X connect 19 1 13 0;
#X connect 20 0 12 0;
#X connect 20 1 13 0;
#X connect 21 0 12 0;
#X connect 21 1 13 0;
#X connect 22 0 12 0;
#X connect 22 1 13 0;
#X coords 0 -1 1 1 815 330 2 815 330;
#X restore -130 -196 pd channels;
#X msg 274 -231 0;
#X obj 705 164 udpsend;
#X obj 705 194 tgl 15 0 empty empty empty 17 7 0 10 -262144 -1 -1 0
1;
#X text 728 194 connected;
#X text -93 160 sound sink;
#X text 716 140 leap sink;
#X msg 708 -272 connect localhost 13371;
#X text 239 -252 restart song;
#X text -173 -274 clock;
#X text 633 -220 buffer;
#X obj -131 -397 udpreceive 9033;
#X obj 639 159 print;
#X obj 326 -252 print songbuffer;
#X connect 1 0 4 0;
#X connect 2 0 8 0;
#X connect 3 0 2 0;
#X connect 4 0 3 0;
#X connect 4 1 6 0;
#X connect 4 3 8 2;
#X connect 4 3 21 0;
#X connect 6 0 2 1;
#X connect 6 0 7 0;
#X connect 6 0 8 1;
#X connect 6 0 15 0;
#X connect 7 0 2 1;
#X connect 8 0 5 0;
#X connect 8 0 5 1;
#X connect 8 1 10 0;
#X connect 8 1 20 0;
#X connect 9 0 8 1;
#X connect 10 0 11 0;
#X connect 15 0 10 0;
#X connect 19 0 1 0;
