#N canvas 90 104 1367 833 10;
#X declare -lib mrpeach;
#X declare -lib mrpeach;
#X declare -lib mrpeach;
#X declare -lib mrpeach;
#X declare -lib mrpeach;
#X declare -lib mrpeach;
#X declare -lib mrpeach;
#X declare -lib mrpeach;
#X declare -lib mrpeach;
#X declare -lib mrpeach;
#X declare -lib mrpeach;
#X declare -lib mrpeach;
#X declare -lib mrpeach;
#X declare -lib mrpeach;
#X declare -lib mrpeach;
#X declare -lib mrpeach;
#X declare -lib mrpeach;
#X obj -346 -419 import mrpeach;
#X obj -345 -344 unpackOSC;
#X obj -323 -70 metro;
#X obj -323 -97 tgl 15 0 empty empty empty 17 7 0 10 -262144 -1 -1
1 1;
#X obj -289 -236 f;
#X floatatom -274 -175 5 0 0 0 - - -;
#X msg -220 -169 0;
#X obj -355 160 udpsend;
#X obj -355 190 tgl 15 0 empty empty empty 17 7 0 10 -262144 -1 -1
1 1;
#X text -315 62 connected;
#X text -323 8 leap sink;
#X msg -345 -260 connect localhost 13371;
#X obj -287 -24 common/channel_routing;
#X text -284 -49 clock;
#X obj 259 62 ctlout;
#X obj 257 -33 pack f f f;
#X obj 251 -157 routeOSC;
#X obj 251 -113 unpack s f f f;
#X obj 251 15 list-rev;
#X obj 495 -66 pgmout;
#X obj 535 -333 routeOSC;
#X obj 536 -294 unpack s f f;
#X obj 535 -151 pack f f;
#X obj 473 -117 list-rev;
#X obj -312 -148 vradio 15 1 0 2 empty empty empty 0 -8 0 10 -262144
-1 -1 1;
#X obj -289 -205 t b f b;
#X obj -309 -178 1;
#X msg -149 146 send /send_next_song \$1;
#X obj -149 170 packOSC;
#X obj -178 211 udpsend;
#X text 555 -362 send program messages to midi synth;
#X text 158 -185 send control messages to midi synth;
#X obj -108 -42 route 0;
#X text -211 20 send message to load next song;
#X msg -134 -171 connect localhost 13470;
#X text -371 -277 connect me later!;
#X obj -96 1 print off;
#X msg -83 73 1;
#X msg -144 -223 0;
#X obj 489 213 print ctl;
#X obj 574 -68 print pgm;
#X obj -345 -379 udpreceive 9049;
#N canvas 583 248 450 300 use_GM 0;
#X obj 43 5 inlet;
#X obj 36 247 ctlout;
#X obj 29 163 f;
#X obj 41 128 until;
#X msg 31 78 16;
#X obj 71 162 + 1;
#X msg 22 197 0 32 \$1;
#X msg 98 199 0 0 \$1;
#X obj 215 147 print setgm;
#X obj 43 36 t b b;
#X msg 181 88 0;
#X connect 0 0 9 0;
#X connect 2 0 5 0;
#X connect 2 0 7 0;
#X connect 2 0 6 0;
#X connect 3 0 2 0;
#X connect 4 0 3 0;
#X connect 5 0 2 1;
#X connect 6 0 1 0;
#X connect 6 0 8 0;
#X connect 7 0 1 0;
#X connect 7 0 8 0;
#X connect 9 0 4 0;
#X connect 9 1 10 0;
#X connect 10 0 2 1;
#X restore 6 -266 pd use_GM;
#X obj 32 -298 bng 15 250 50 0 empty empty empty 17 7 0 10 -262144
-1 -1;
#N canvas 250 83 1085 821 async 0;
#X obj 45 24 inlet;
#X obj 45 63 routeOSC /collide;
#N canvas 0 22 450 278 (subpatch) 0;
#X array \$0_velocity 32 float 3;
#A 0 84 84 32 32 32 127 103 103 103 54 127 84 74 84 68 63 53 43 101
99 114 41 41 127 32 32 32 81 127 99 90 95;
#X coords 0 200 32 0 200 140 1 0 0;
#X restore 611 150 graph;
#N canvas 0 22 450 278 (subpatch) 0;
#X array \$0_midi_value 32 float 3;
#A 0 79 74 55 60 63 41 50 55 58 67 38 57 55 82 77 53 52 49 55 60 63
75 70 31 56 62 65 67 43 53 58 62;
#X coords 0 128 32 0 200 140 1 0 0;
#X restore 609 320 graph;
#N canvas 0 22 450 278 (subpatch) 0;
#X array \$0_channel_value 32 float 3;
#A 0 5 5 0 0 0 6 0 0 0 5 6 0 0 5 5 0 0 0 0 0 0 5 5 6 0 0 0 5 6 0 0
0;
#X coords 0 128 32 0 200 140 1 0 0;
#X restore 609 497 graph;
#X obj 261 9 inlet;
#X obj 510 292 f;
#X obj 547 292 + 1;
#X text 514 264 index;
#X obj 298 288 unpack f f f;
#X text 348 205 (midi \, velocity \, channel);
#X obj 359 384 tabwrite \$0_midi_value;
#X obj 398 434 tabwrite \$0_velocity;
#X obj 390 486 tabwrite \$0_channel_value;
#X obj 51 97 routeOSC;
#X obj 87 243 tabread \$0_velocity;
#X obj 45 219 tabread \$0_midi_value;
#X obj 56 276 tabread \$0_channel_value;
#X obj 510 325 mod 32;
#X obj 376 246 t f b;
#X obj 94 503 noteout;
#X text 311 7 channel \, midi \, velocity;
#X obj 239 61 unpack f f f;
#X obj 247 187 pack f f f;
#X obj 240 109 pack f f;
#X obj 247 34 list-rev;
#X text 310 34 velocity \, midi \, channel;
#X obj 236 160 unpack f f;
#X obj 248 138 list-rev;
#X obj 15 362 makenote 100 2000;
#X obj 178 84 moses 1;
#X obj 555 63 unpack f f f;
#X obj 551 107 moses 1;
#X msg 560 23 127 86 127;
#X obj 366 161 print noooooo;
#X obj 61 151 unpack s f;
#X obj 734 16 inlet;
#X text 779 10 bpm;
#X obj 686 74 unpack f;
#X obj 54 407 pack f f f;
#X obj 73 188 t f f f;
#X connect 0 0 1 0;
#X connect 1 0 14 0;
#X connect 5 0 25 0;
#X connect 6 0 7 0;
#X connect 6 0 18 0;
#X connect 7 0 6 1;
#X connect 9 0 11 0;
#X connect 9 1 12 0;
#X connect 9 2 19 0;
#X connect 14 0 35 0;
#X connect 16 0 29 0;
#X connect 17 0 39 2;
#X connect 18 0 11 1;
#X connect 18 0 12 1;
#X connect 18 0 13 1;
#X connect 19 0 13 0;
#X connect 19 1 6 0;
#X connect 22 0 30 0;
#X connect 22 1 24 1;
#X connect 22 2 23 2;
#X connect 23 0 9 0;
#X connect 24 0 28 0;
#X connect 25 0 22 0;
#X connect 27 0 23 0;
#X connect 27 1 23 1;
#X connect 28 0 27 0;
#X connect 29 0 39 0;
#X connect 29 1 39 1;
#X connect 30 1 24 0;
#X connect 33 0 31 0;
#X connect 35 0 40 0;
#X connect 36 0 38 0;
#X connect 39 0 20 0;
#X connect 40 0 16 0;
#X connect 40 1 15 0;
#X connect 40 2 17 0;
#X restore -182 -251 pd async;
#X obj -281 128 packOSC;
#X obj -344 -325 routeOSC /startprogram /ms_per_tick /sync /async /control
/prgm /stop /setgm /bpm;
#X obj -53 -214 print adsf;
#X obj 48 -113 unpack f;
#X obj -194 36 f;
#X obj -283 30 t l b;
#X obj -281 71 list append;
#X obj -272 224 print;
#X msg -282 97 send /notes \$1 \$2 \$3 \$4;
#X obj 43 -43 + 0.1;
#X connect 1 0 46 0;
#X connect 2 0 12 0;
#X connect 3 0 2 0;
#X connect 4 0 25 0;
#X connect 5 0 2 1;
#X connect 6 0 12 1;
#X connect 7 0 8 0;
#X connect 11 0 7 0;
#X connect 12 0 44 1;
#X connect 12 0 50 0;
#X connect 12 1 24 0;
#X connect 15 0 18 0;
#X connect 16 0 17 0;
#X connect 17 1 15 0;
#X connect 17 2 15 1;
#X connect 17 3 15 2;
#X connect 18 0 14 0;
#X connect 18 0 39 0;
#X connect 20 0 21 0;
#X connect 21 1 22 0;
#X connect 21 2 22 1;
#X connect 22 0 23 0;
#X connect 23 0 19 0;
#X connect 23 0 40 0;
#X connect 24 0 3 0;
#X connect 24 0 32 0;
#X connect 25 0 26 0;
#X connect 25 1 5 0;
#X connect 25 2 6 0;
#X connect 26 0 24 0;
#X connect 27 0 28 0;
#X connect 28 0 29 0;
#X connect 32 0 36 0;
#X connect 32 0 37 0;
#X connect 34 0 29 0;
#X connect 37 0 27 0;
#X connect 38 0 24 0;
#X connect 41 0 1 0;
#X connect 43 0 42 0;
#X connect 45 0 7 0;
#X connect 46 0 34 0;
#X connect 46 0 6 0;
#X connect 46 0 12 3;
#X connect 46 0 11 0;
#X connect 46 1 4 0;
#X connect 46 2 12 2;
#X connect 46 3 44 0;
#X connect 46 4 16 0;
#X connect 46 5 20 0;
#X connect 46 6 38 0;
#X connect 46 7 42 0;
#X connect 46 8 44 2;
#X connect 46 8 47 0;
#X connect 46 8 48 0;
#X connect 48 0 54 0;
#X connect 49 0 51 1;
#X connect 50 0 51 0;
#X connect 50 1 49 0;
#X connect 51 0 53 0;
#X connect 53 0 45 0;
#X connect 53 0 52 0;
#X connect 54 0 49 1;
