#N canvas 35 88 1367 833 10;
#X declare -lib mrpeach;
#X declare -lib mrpeach;
#X declare -lib mrpeach;
#X declare -lib mrpeach;
#X declare -lib mrpeach;
#X declare -lib mrpeach;
#X declare -lib mrpeach;
#X declare -lib mrpeach;
#X declare -lib mrpeach;
#X declare -lib mrpeach;
#X declare -lib mrpeach;
#X declare -lib mrpeach;
#X declare -lib mrpeach;
#X declare -lib mrpeach;
#X declare -lib mrpeach;
#X declare -lib mrpeach;
#X declare -lib mrpeach;
#X obj -346 -419 import mrpeach;
#X obj -345 -344 unpackOSC;
#X obj -326 -89 metro;
#X obj -326 -135 tgl 15 0 empty empty empty 17 7 0 10 -262144 -1 -1
12.5 12.5;
#X obj -273 -191 f;
#X floatatom -299 -124 5 0 0 0 - - -;
#X msg -243 -121 0;
#X obj -338 32 udpsend;
#X obj -338 62 tgl 15 0 empty empty empty 17 7 0 10 -262144 -1 -1 0
1;
#X text -315 62 connected;
#X text -323 8 leap sink;
#X msg -345 -249 connect localhost 13371;
#X obj -274 -167 t b f b;
#X obj -345 -379 udpreceive 9049;
#X obj -288 -48 common/channel_routing;
#X obj -345 -309 routeOSC /startprogram /ms_per_tick /sync /async;
#X text -287 -88 clock;
#X connect 1 0 15 0;
#X connect 2 0 14 0;
#X connect 3 0 2 0;
#X connect 4 0 12 0;
#X connect 5 0 2 1;
#X connect 6 0 14 1;
#X connect 7 0 8 0;
#X connect 11 0 7 0;
#X connect 12 0 3 0;
#X connect 12 1 5 0;
#X connect 12 2 6 0;
#X connect 13 0 1 0;
#X connect 15 0 11 0;
#X connect 15 1 4 0;
#X connect 15 2 14 2;
