#N canvas 343 265 1367 833 10;
#X declare -lib mrpeach;
#X declare -lib mrpeach;
#X declare -lib mrpeach;
#X declare -lib mrpeach;
#X declare -lib mrpeach;
#X declare -lib mrpeach;
#X declare -lib mrpeach;
#X declare -lib mrpeach;
#X declare -lib mrpeach;
#X declare -lib mrpeach;
#X declare -lib mrpeach;
#X declare -lib mrpeach;
#X declare -lib mrpeach;
#X declare -lib mrpeach;
#X declare -lib mrpeach;
#X declare -lib mrpeach;
#X declare -lib mrpeach;
#X obj -346 -419 import mrpeach;
#X obj -345 -344 unpackOSC;
#X obj -323 -70 metro;
#X obj -323 -97 tgl 15 0 empty empty empty 17 7 0 10 -262144 -1 -1
0 1;
#X obj -289 -236 f;
#X floatatom -274 -175 5 0 0 0 - - -;
#X msg -220 -169 0;
#X obj -338 32 udpsend;
#X obj -338 62 tgl 15 0 empty empty empty 17 7 0 10 -262144 -1 -1 0
1;
#X text -315 62 connected;
#X text -323 8 leap sink;
#X msg -345 -260 connect localhost 13371;
#X obj -345 -379 udpreceive 9049;
#X obj -298 -32 common/channel_routing;
#X text -284 -49 clock;
#X obj 56 16 ctlout;
#X obj 539 -278 ctlout;
#X obj 582 -166 pgmout;
#X obj 770 -277 noteout;
#X msg 781 -319 63 100 0;
#X msg 851 -302 63 0 0;
#X msg 537 -357 127 7 0;
#X msg 641 -364 0 0 0;
#X msg 668 -337 0 32 0;
#X msg 832 -390 127 7 1;
#X obj 866 -337 ctlout;
#X msg 938 -380 0 32 1;
#X msg 906 -411 0 0 1;
#X obj 590 -76 ctlout;
#X msg 523 -130 127 7 2;
#X msg 613 -114 0 32 2;
#X msg 609 -144 0 0 2;
#X obj 766 -65 ctlout;
#X obj 931 -44 ctlout;
#X obj 569 68 ctlout;
#X msg 704 -125 127 7 3;
#X msg 790 -139 0 0 3;
#X msg 794 -109 0 32 3;
#X msg 865 -110 127 7 4;
#X msg 951 -124 0 0 4;
#X msg 955 -94 0 32 4;
#X msg 531 18 127 7 5;
#X msg 617 4 0 0 5;
#X msg 621 34 0 32 5;
#X obj 720 71 ctlout;
#X msg 768 7 0 0 6;
#X msg 772 37 0 32 6;
#X msg 682 21 127 7 6;
#X obj 896 75 ctlout;
#X msg 858 25 127 7 7;
#X msg 944 11 0 0 7;
#X msg 948 41 0 32 7;
#X msg 707 -224 48 3;
#X msg 780 -223 11 4;
#X msg 823 -211 87 5;
#X msg 901 -207 38 6;
#X obj 54 -79 pack f f f;
#X obj 48 -203 routeOSC;
#X obj 48 -159 unpack s f f f;
#X obj 48 -31 list-rev;
#X obj 199 -54 pgmout;
#X obj 169 -246 routeOSC;
#X obj 170 -207 unpack s f f;
#X floatatom 224 -135 5 0 0 0 - - -;
#X obj 189 -157 pack f f;
#X obj 177 -105 list-rev;
#X msg 525 -229 24 3;
#X msg 586 -235 40 2;
#X obj -314 -148 vradio 15 1 0 2 empty empty empty 0 -8 0 10 -262144
-1 -1 0;
#X obj -289 -205 t b f b;
#X obj -309 -178 1;
#X msg -149 146 send /send_next_song \$1;
#X obj -149 170 packOSC;
#X obj -178 211 udpsend;
#X text 189 -275 send program messages to midi synth;
#X text -45 -231 send control messages to midi synth;
#X obj -108 -42 route 0;
#X text -211 20 send message to load next song;
#X msg -134 -171 connect localhost 13470;
#X obj -244 162 print;
#X text -371 -277 connect me later!;
#X obj -53 201 print itried;
#X obj -96 1 print off;
#X msg -83 73 1;
#X msg 520 -187 81 1;
#X msg 634 -230 47 1;
#X obj -345 -326 routeOSC /startprogram /ms_per_tick /sync /async /control
/prgm /stop;
#X msg -144 -223 0;
#X connect 1 0 86 0;
#X connect 2 0 13 0;
#X connect 3 0 2 0;
#X connect 4 0 69 0;
#X connect 5 0 2 1;
#X connect 6 0 13 1;
#X connect 7 0 8 0;
#X connect 11 0 7 0;
#X connect 12 0 1 0;
#X connect 13 1 68 0;
#X connect 19 0 18 0;
#X connect 20 0 18 0;
#X connect 21 0 16 0;
#X connect 22 0 16 0;
#X connect 23 0 16 0;
#X connect 24 0 25 0;
#X connect 26 0 25 0;
#X connect 27 0 25 0;
#X connect 29 0 28 0;
#X connect 30 0 28 0;
#X connect 31 0 28 0;
#X connect 35 0 32 0;
#X connect 36 0 32 0;
#X connect 37 0 32 0;
#X connect 38 0 33 0;
#X connect 39 0 33 0;
#X connect 40 0 33 0;
#X connect 41 0 34 0;
#X connect 42 0 34 0;
#X connect 43 0 34 0;
#X connect 45 0 44 0;
#X connect 46 0 44 0;
#X connect 47 0 44 0;
#X connect 49 0 48 0;
#X connect 50 0 48 0;
#X connect 51 0 48 0;
#X connect 52 0 17 0;
#X connect 53 0 17 0;
#X connect 54 0 17 0;
#X connect 55 0 17 0;
#X connect 56 0 59 0;
#X connect 57 0 58 0;
#X connect 58 1 56 0;
#X connect 58 2 56 1;
#X connect 58 3 56 2;
#X connect 59 0 15 0;
#X connect 61 0 62 0;
#X connect 62 1 64 0;
#X connect 62 2 64 1;
#X connect 64 0 65 0;
#X connect 65 0 60 0;
#X connect 66 0 17 0;
#X connect 67 0 17 0;
#X connect 68 0 3 0;
#X connect 68 0 76 0;
#X connect 69 0 70 0;
#X connect 69 1 5 0;
#X connect 69 2 6 0;
#X connect 70 0 68 0;
#X connect 71 0 72 0;
#X connect 72 0 73 0;
#X connect 72 0 81 0;
#X connect 76 0 82 0;
#X connect 76 0 83 0;
#X connect 78 0 73 0;
#X connect 83 0 71 0;
#X connect 84 0 17 0;
#X connect 85 0 17 0;
#X connect 86 0 78 0;
#X connect 86 0 6 0;
#X connect 86 1 4 0;
#X connect 86 2 13 2;
#X connect 86 4 57 0;
#X connect 86 5 61 0;
#X connect 86 6 87 0;
#X connect 87 0 68 0;
