#N canvas 109 100 450 300 10;
#X declare -lib mrpeach;
#X obj 15 6 import mrpeach;
#X obj 18 50 udpreceive 13372;
#X obj 17 81 unpackOSC;
#X obj 17 115 routeOSC /percussion /minstruments /event;
#X obj 112 175 print;
#X connect 1 0 2 0;
#X connect 2 0 3 0;
#X connect 3 0 4 0;
#X connect 3 1 4 0;
#X connect 3 2 4 0;
#X connect 3 3 4 0;
