#N canvas 109 100 450 300 10;
#X declare -lib mrpeach;
#X obj 15 6 import mrpeach;
#X obj 17 81 unpackOSC;
#X obj 17 115 routeOSC /percussion /minstruments /event;
#X obj 112 175 print;
#X obj 18 50 udpreceive 13371;
#X connect 1 0 2 0;
#X connect 2 0 3 0;
#X connect 2 1 3 0;
#X connect 2 2 3 0;
#X connect 2 3 3 0;
#X connect 4 0 1 0;
