#N canvas 201 443 901 667 10;
#X declare -lib mrpeach;
#X obj 27 -409 import mrpeach;
#X obj 27 -375 udpreceive 9003;
#X obj 27 -340 unpackOSC;
#X obj 28 -301 routeOSC /sync /async;
#X connect 0 0 1 0;
#X connect 1 0 2 0;
#X connect 2 0 3 0;
