#N canvas 396 272 928 441 10;
#X obj 60 236 dac~;
#X obj 63 65 mtof;
#X obj 62 23 hsl 128 15 0 127 0 0 empty empty empty -2 -8 0 10 -262144
-1 -1 4900 1;
#X obj 63 185 s_buzz;
#X obj 234 22 hsl 128 15 0 0.9 0 0 empty empty empty -2 -8 0 10 -262144
-1 -1 0 1;
#X obj 231 52 moses 1;
#X text 246 3 Harmonicity-Env;
#X floatatom 239 76 5 0 0 0 - - -;
#X obj 231 147 line~;
#X obj 231 123 pack 0 100;
#X connect 1 0 3 0;
#X connect 2 0 1 0;
#X connect 3 0 0 0;
#X connect 3 0 0 1;
#X connect 4 0 5 0;
#X connect 5 0 7 0;
#X connect 5 0 9 0;
#X connect 8 0 3 1;
#X connect 9 0 8 0;
