#N canvas 357 122 1311 852 10;
#X declare -lib mrpeach;
#X obj -329 41 inlet;
#X obj -289 40 inlet;
#X obj -248 39 inlet;
#X text -332 22 ticks;
#X obj -207 234 vradio 15 1 0 2 empty empty empty 0 -8 0 10 -262144
-1 -1 0;
#X text -295 21 reset;
#X text -251 18 route osc info;
#X obj -171 145 routeOSC;
#X obj -173 170 unpack s f;
#X obj -373 135 vradio 15 1 0 2 empty empty empty 0 -8 0 10 -262144
-1 -1 0;
#X obj -373 191 route 0;
#X obj -373 103 f;
#X obj -334 291 channel-buffer;
#X obj -334 225 bng 15 250 50 0 empty empty empty 17 7 0 10 -262144
-1 -1;
#X obj -385 373 outlet;
#X text -471 371 out for midi;
#X floatatom -171 263 5 0 0 0 - - -;
#X obj -289 378 outlet;
#X text -278 345 out for osc;
#X obj -248 90 routeOSC /midi /toggle;
#X connect 0 0 11 0;
#X connect 1 0 12 1;
#X connect 2 0 19 0;
#X connect 4 0 11 1;
#X connect 4 0 16 0;
#X connect 7 0 8 0;
#X connect 8 1 4 0;
#X connect 9 0 10 0;
#X connect 10 1 13 0;
#X connect 11 0 9 0;
#X connect 12 0 14 0;
#X connect 12 0 17 0;
#X connect 13 0 12 0;
#X connect 19 0 12 2;
#X connect 19 1 7 0;
#X coords 0 852 1 851 60 150 0;
