#N canvas 480 22 1440 852 10;
#X declare -lib mrpeach;
#X declare -lib mrpeach;
#X declare -lib mrpeach;
#X declare -lib mrpeach;
#X declare -lib mrpeach;
#X declare -lib mrpeach;
#X declare -lib mrpeach;
#X declare -lib mrpeach;
#X declare -lib mrpeach;
#X declare -lib mrpeach;
#X declare -lib mrpeach;
#X declare -lib mrpeach;
#X declare -lib mrpeach;
#X declare -lib mrpeach;
#X declare -lib mrpeach;
#X declare -lib mrpeach;
#X text 86 39 counter;
#X obj 92 55 inlet;
#X obj 98 91 bng 15 250 50 0 empty empty empty 17 7 0 10 -262144 -1
-1;
#X obj 556 42 inlet;
#X text 550 21 bang for reset;
#X obj 790 39 inlet;
#X text 784 18 set values;
#X obj 136 778 outlet;
#X obj 556 80 bng 15 250 50 0 empty empty empty 17 7 0 10 -262144 -1
-1;
#X obj 217 293 list prepend;
#X obj 258 263 bng 15 250 50 0 empty empty empty 17 7 0 10 -262144
-1 -1;
#X obj 217 247 t l b;
#X obj 217 324 s \$0_send_to_osc;
#X obj 136 715 r \$0_send_to_osc;
#X obj 335 295 list prepend;
#X obj 376 265 bng 15 250 50 0 empty empty empty 17 7 0 10 -262144
-1 -1;
#X obj 335 249 t l b;
#X obj 335 326 s \$0_send_to_osc;
#X obj 451 295 list prepend;
#X obj 492 265 bng 15 250 50 0 empty empty empty 17 7 0 10 -262144
-1 -1;
#X obj 451 249 t l b;
#X obj 451 326 s \$0_send_to_osc;
#X obj 569 297 list prepend;
#X obj 610 267 bng 15 250 50 0 empty empty empty 17 7 0 10 -262144
-1 -1;
#X obj 569 251 t l b;
#X obj 569 328 s \$0_send_to_osc;
#X obj 697 296 list prepend;
#X obj 738 266 bng 15 250 50 0 empty empty empty 17 7 0 10 -262144
-1 -1;
#X obj 697 250 t l b;
#X obj 697 327 s \$0_send_to_osc;
#X obj 815 298 list prepend;
#X obj 856 268 bng 15 250 50 0 empty empty empty 17 7 0 10 -262144
-1 -1;
#X obj 815 252 t l b;
#X obj 815 329 s \$0_send_to_osc;
#X obj 931 298 list prepend;
#X obj 972 268 bng 15 250 50 0 empty empty empty 17 7 0 10 -262144
-1 -1;
#X obj 931 252 t l b;
#X obj 931 329 s \$0_send_to_osc;
#X obj 1049 300 list prepend;
#X obj 1090 270 bng 15 250 50 0 empty empty empty 17 7 0 10 -262144
-1 -1;
#X obj 1049 254 t l b;
#X obj 1049 331 s \$0_send_to_osc;
#X obj 215 469 list prepend;
#X obj 256 439 bng 15 250 50 0 empty empty empty 17 7 0 10 -262144
-1 -1;
#X obj 215 423 t l b;
#X obj 215 500 s \$0_send_to_osc;
#X obj 333 471 list prepend;
#X obj 374 441 bng 15 250 50 0 empty empty empty 17 7 0 10 -262144
-1 -1;
#X obj 333 425 t l b;
#X obj 333 502 s \$0_send_to_osc;
#X obj 449 471 list prepend;
#X obj 490 441 bng 15 250 50 0 empty empty empty 17 7 0 10 -262144
-1 -1;
#X obj 449 425 t l b;
#X obj 449 502 s \$0_send_to_osc;
#X obj 567 473 list prepend;
#X obj 608 443 bng 15 250 50 0 empty empty empty 17 7 0 10 -262144
-1 -1;
#X obj 567 427 t l b;
#X obj 567 504 s \$0_send_to_osc;
#X obj 695 472 list prepend;
#X obj 736 442 bng 15 250 50 0 empty empty empty 17 7 0 10 -262144
-1 -1;
#X obj 695 426 t l b;
#X obj 695 503 s \$0_send_to_osc;
#X obj 813 474 list prepend;
#X obj 854 444 bng 15 250 50 0 empty empty empty 17 7 0 10 -262144
-1 -1;
#X obj 813 428 t l b;
#X obj 813 505 s \$0_send_to_osc;
#X obj 929 474 list prepend;
#X obj 970 444 bng 15 250 50 0 empty empty empty 17 7 0 10 -262144
-1 -1;
#X obj 929 428 t l b;
#X obj 929 505 s \$0_send_to_osc;
#X obj 1047 476 list prepend;
#X obj 1088 446 bng 15 250 50 0 empty empty empty 17 7 0 10 -262144
-1 -1;
#X obj 1047 430 t l b;
#X obj 1047 507 s \$0_send_to_osc;
#X obj 211 221 channel;
#X text 143 757 send osc;
#X obj 790 64 routeOSC /c0 /c1 /c2 /c3 /c4 /c5 /c6 /c7 /c8 /c9 /c10
/c11 /c12 /c13 /c14 /c15;
#X obj 211 357 noteout 0;
#X obj 329 359 noteout 1;
#X obj 445 359 noteout 2;
#X obj 563 361 noteout 3;
#X obj 691 360 noteout 4;
#X obj 809 362 noteout 5;
#X obj 925 362 noteout 6;
#X obj 1043 364 noteout 7;
#X obj 209 533 noteout 8;
#X obj 327 535 noteout 9;
#X obj 443 535 noteout 10;
#X obj 561 537 noteout 11;
#X obj 689 536 noteout 12;
#X obj 807 538 noteout 13;
#X obj 923 538 noteout 14;
#X obj 1041 540 noteout 15;
#X obj 288 270 0;
#X obj 406 272 1;
#X obj 522 272 2;
#X obj 640 274 3;
#X obj 768 273 4;
#X obj 886 275 5;
#X obj 1002 275 6;
#X obj 1120 277 7;
#X obj 286 446 8;
#X obj 404 448 9;
#X obj 520 448 10;
#X obj 638 450 11;
#X obj 766 449 12;
#X obj 884 451 13;
#X obj 1000 451 14;
#X obj 1118 453 15;
#X obj 1225 801 outlet;
#X text 1176 780 send a 0 for a stop signal;
#X obj 329 223 channel;
#X obj 445 223 channel;
#X obj 563 225 channel;
#X obj 691 224 channel;
#X obj 809 226 channel;
#X obj 925 226 channel;
#X obj 1043 228 channel;
#X obj 1041 404 channel;
#X obj 923 402 channel;
#X obj 807 402 channel;
#X obj 689 400 channel;
#X obj 561 401 channel;
#X obj 443 399 channel;
#X obj 327 399 channel;
#X obj 209 397 channel;
#N canvas 145 114 1262 604 stop_detector_for_song 0;
#X obj 116 74 inlet;
#X obj 116 134 f;
#X obj 162 75 inlet;
#X obj 162 135 f;
#X obj 207 74 inlet;
#X obj 207 134 f;
#X obj 253 75 inlet;
#X obj 253 135 f;
#X obj 300 73 inlet;
#X obj 300 133 f;
#X obj 346 74 inlet;
#X obj 346 134 f;
#X obj 391 73 inlet;
#X obj 391 133 f;
#X obj 437 74 inlet;
#X obj 437 134 f;
#X obj 486 71 inlet;
#X obj 486 131 f;
#X obj 532 72 inlet;
#X obj 532 132 f;
#X obj 577 71 inlet;
#X obj 577 131 f;
#X obj 623 72 inlet;
#X obj 623 132 f;
#X obj 670 70 inlet;
#X obj 670 130 f;
#X obj 716 71 inlet;
#X obj 716 131 f;
#X obj 761 70 inlet;
#X obj 761 130 f;
#X obj 807 71 inlet;
#X obj 807 131 f;
#X obj 879 73 inlet;
#X text 877 45 start signal;
#X obj 879 101 bng 15 250 50 0 empty empty empty 17 7 0 10 -262144
-1 -1;
#X obj 879 144 metro 500;
#X obj 149 379 t b b b b b b b b b b b b b b b b;
#X obj 771 173 +;
#X obj 698 174 +;
#X obj 595 172 +;
#X obj 504 169 +;
#X obj 408 166 +;
#X obj 318 163 +;
#X obj 228 166 +;
#X obj 137 166 +;
#X obj 730 213 +;
#X obj 539 217 +;
#X obj 354 213 +;
#X obj 185 195 +;
#X obj 622 279 +;
#X obj 263 267 +;
#X obj 530 403 +;
#X obj 609 474 select 0;
#X obj 723 547 outlet;
#X text 719 504 send a 0 if sum is zero;
#X connect 0 0 1 1;
#X connect 1 0 44 0;
#X connect 2 0 3 1;
#X connect 3 0 44 1;
#X connect 4 0 5 1;
#X connect 5 0 43 0;
#X connect 6 0 7 1;
#X connect 7 0 43 1;
#X connect 8 0 9 1;
#X connect 9 0 42 0;
#X connect 10 0 11 1;
#X connect 11 0 42 1;
#X connect 12 0 13 1;
#X connect 13 0 41 0;
#X connect 14 0 15 1;
#X connect 15 0 41 1;
#X connect 16 0 17 1;
#X connect 17 0 40 0;
#X connect 18 0 19 1;
#X connect 19 0 40 1;
#X connect 20 0 21 1;
#X connect 21 0 39 0;
#X connect 22 0 23 1;
#X connect 23 0 39 1;
#X connect 24 0 25 1;
#X connect 25 0 38 0;
#X connect 26 0 27 1;
#X connect 27 0 38 1;
#X connect 28 0 29 1;
#X connect 29 0 37 0;
#X connect 30 0 31 1;
#X connect 31 0 37 1;
#X connect 32 0 34 0;
#X connect 34 0 35 0;
#X connect 35 0 36 0;
#X connect 36 0 1 0;
#X connect 36 1 3 0;
#X connect 36 2 5 0;
#X connect 36 3 7 0;
#X connect 36 4 9 0;
#X connect 36 5 11 0;
#X connect 36 6 13 0;
#X connect 36 7 15 0;
#X connect 36 8 17 0;
#X connect 36 9 19 0;
#X connect 36 10 21 0;
#X connect 36 11 23 0;
#X connect 36 12 25 0;
#X connect 36 13 27 0;
#X connect 36 14 29 0;
#X connect 36 15 31 0;
#X connect 37 0 45 1;
#X connect 38 0 45 0;
#X connect 39 0 46 1;
#X connect 40 0 46 0;
#X connect 41 0 47 1;
#X connect 42 0 47 0;
#X connect 43 0 48 1;
#X connect 44 0 48 0;
#X connect 45 0 49 1;
#X connect 46 0 49 0;
#X connect 47 0 50 1;
#X connect 48 0 50 0;
#X connect 49 0 51 1;
#X connect 50 0 51 0;
#X connect 51 0 52 0;
#X connect 52 0 53 0;
#X restore 690 673 pd stop_detector_for_song;
#X obj 1233 47 inlet;
#X text 1220 29 send bang at start of program;
#X obj 1233 95 bng 15 250 50 0 empty empty empty 17 7 0 10 -262144
-1 -1;
#X msg 1004 774 0;
#X connect 1 0 2 0;
#X connect 2 0 74 0;
#X connect 2 0 111 0;
#X connect 2 0 112 0;
#X connect 2 0 113 0;
#X connect 2 0 114 0;
#X connect 2 0 115 0;
#X connect 2 0 116 0;
#X connect 2 0 117 0;
#X connect 2 0 118 0;
#X connect 2 0 119 0;
#X connect 2 0 120 0;
#X connect 2 0 121 0;
#X connect 2 0 122 0;
#X connect 2 0 123 0;
#X connect 2 0 124 0;
#X connect 2 0 125 0;
#X connect 3 0 8 0;
#X connect 5 0 76 0;
#X connect 8 0 74 1;
#X connect 8 0 111 1;
#X connect 8 0 112 1;
#X connect 8 0 113 1;
#X connect 8 0 114 1;
#X connect 8 0 115 1;
#X connect 8 0 116 1;
#X connect 8 0 117 1;
#X connect 8 0 118 1;
#X connect 8 0 119 1;
#X connect 8 0 120 1;
#X connect 8 0 121 1;
#X connect 8 0 122 1;
#X connect 8 0 123 1;
#X connect 8 0 124 1;
#X connect 8 0 125 1;
#X connect 9 0 12 0;
#X connect 10 0 93 0;
#X connect 11 0 9 0;
#X connect 11 1 10 0;
#X connect 13 0 7 0;
#X connect 14 0 17 0;
#X connect 15 0 94 0;
#X connect 16 0 14 0;
#X connect 16 1 15 0;
#X connect 18 0 21 0;
#X connect 19 0 95 0;
#X connect 20 0 18 0;
#X connect 20 1 19 0;
#X connect 22 0 25 0;
#X connect 23 0 96 0;
#X connect 24 0 22 0;
#X connect 24 1 23 0;
#X connect 26 0 29 0;
#X connect 27 0 97 0;
#X connect 28 0 26 0;
#X connect 28 1 27 0;
#X connect 30 0 33 0;
#X connect 31 0 98 0;
#X connect 32 0 30 0;
#X connect 32 1 31 0;
#X connect 34 0 37 0;
#X connect 35 0 99 0;
#X connect 36 0 34 0;
#X connect 36 1 35 0;
#X connect 38 0 41 0;
#X connect 39 0 100 0;
#X connect 40 0 38 0;
#X connect 40 1 39 0;
#X connect 42 0 45 0;
#X connect 43 0 101 0;
#X connect 44 0 42 0;
#X connect 44 1 43 0;
#X connect 46 0 49 0;
#X connect 47 0 102 0;
#X connect 48 0 46 0;
#X connect 48 1 47 0;
#X connect 50 0 53 0;
#X connect 51 0 103 0;
#X connect 52 0 50 0;
#X connect 52 1 51 0;
#X connect 54 0 57 0;
#X connect 55 0 104 0;
#X connect 56 0 54 0;
#X connect 56 1 55 0;
#X connect 58 0 61 0;
#X connect 59 0 105 0;
#X connect 60 0 58 0;
#X connect 60 1 59 0;
#X connect 62 0 65 0;
#X connect 63 0 106 0;
#X connect 64 0 62 0;
#X connect 64 1 63 0;
#X connect 66 0 69 0;
#X connect 67 0 107 0;
#X connect 68 0 66 0;
#X connect 68 1 67 0;
#X connect 70 0 73 0;
#X connect 71 0 108 0;
#X connect 72 0 70 0;
#X connect 72 1 71 0;
#X connect 74 0 77 0;
#X connect 74 1 11 0;
#X connect 74 2 126 0;
#X connect 76 0 74 2;
#X connect 76 1 111 2;
#X connect 76 2 112 2;
#X connect 76 3 113 2;
#X connect 76 4 114 2;
#X connect 76 5 115 2;
#X connect 76 6 116 2;
#X connect 76 7 117 2;
#X connect 76 8 125 2;
#X connect 76 9 124 2;
#X connect 76 10 123 2;
#X connect 76 11 122 2;
#X connect 76 12 121 2;
#X connect 76 13 120 2;
#X connect 76 14 119 2;
#X connect 76 15 118 2;
#X connect 93 0 9 1;
#X connect 94 0 14 1;
#X connect 95 0 18 1;
#X connect 96 0 22 1;
#X connect 97 0 26 1;
#X connect 98 0 30 1;
#X connect 99 0 34 1;
#X connect 100 0 38 1;
#X connect 101 0 42 1;
#X connect 102 0 46 1;
#X connect 103 0 50 1;
#X connect 104 0 54 1;
#X connect 105 0 58 1;
#X connect 106 0 62 1;
#X connect 107 0 66 1;
#X connect 108 0 70 1;
#X connect 111 0 78 0;
#X connect 111 1 16 0;
#X connect 111 2 126 1;
#X connect 112 0 79 0;
#X connect 112 1 20 0;
#X connect 112 2 126 2;
#X connect 113 0 80 0;
#X connect 113 1 24 0;
#X connect 113 2 126 3;
#X connect 114 0 81 0;
#X connect 114 1 28 0;
#X connect 114 2 126 4;
#X connect 115 0 82 0;
#X connect 115 1 32 0;
#X connect 115 2 126 5;
#X connect 116 0 83 0;
#X connect 116 1 36 0;
#X connect 116 2 126 6;
#X connect 117 0 84 0;
#X connect 117 1 40 0;
#X connect 117 2 126 7;
#X connect 118 0 92 0;
#X connect 118 1 72 0;
#X connect 118 2 126 15;
#X connect 119 0 91 0;
#X connect 119 1 68 0;
#X connect 119 2 126 14;
#X connect 120 0 90 0;
#X connect 120 1 64 0;
#X connect 120 2 126 13;
#X connect 121 0 89 0;
#X connect 121 1 60 0;
#X connect 121 2 126 12;
#X connect 122 0 88 0;
#X connect 122 1 56 0;
#X connect 122 2 126 11;
#X connect 123 0 87 0;
#X connect 123 1 52 0;
#X connect 123 2 126 10;
#X connect 124 0 86 0;
#X connect 124 1 48 0;
#X connect 124 2 126 9;
#X connect 125 0 85 0;
#X connect 125 1 44 0;
#X connect 125 2 126 8;
#X connect 126 0 130 0;
#X connect 127 0 129 0;
#X connect 129 0 126 16;
#X connect 130 0 109 0;
