#N canvas 101 145 1440 852 10;
#X declare -lib mrpeach;
#X declare -lib mrpeach;
#X declare -lib mrpeach;
#X declare -lib mrpeach;
#X declare -lib mrpeach;
#X declare -lib mrpeach;
#X declare -lib mrpeach;
#X declare -lib mrpeach;
#X declare -lib mrpeach;
#X declare -lib mrpeach;
#X declare -lib mrpeach;
#X declare -lib mrpeach;
#X declare -lib mrpeach;
#X declare -lib mrpeach;
#X declare -lib mrpeach;
#X declare -lib mrpeach;
#X text 86 39 counter;
#X obj 98 58 inlet;
#X obj 98 91 bng 15 250 50 0 empty empty empty 17 7 0 10 -262144 -1
-1;
#X obj 556 42 inlet;
#X text 550 21 bang for reset;
#X obj 790 39 inlet;
#X text 784 18 set values;
#X obj 790 64 routeOSC /c1 /c2 /c3 /c4 /c5 /c6 /c7 /c8 /c9 /c10 /c11
/c12 /c13 /c14 /c15 /c16;
#X obj 215 645 outlet;
#X obj 556 80 bng 15 250 50 0 empty empty empty 17 7 0 10 -262144 -1
-1;
#X obj 211 357 noteout 1;
#X obj 217 293 list prepend;
#X obj 288 270 1;
#X obj 258 263 bng 15 250 50 0 empty empty empty 17 7 0 10 -262144
-1 -1;
#X obj 217 247 t l b;
#X obj 217 324 s \$0_send_to_osc;
#X obj 215 582 r \$0_send_to_osc;
#X obj 329 359 noteout 1;
#X obj 335 295 list prepend;
#X obj 406 272 1;
#X obj 376 265 bng 15 250 50 0 empty empty empty 17 7 0 10 -262144
-1 -1;
#X obj 335 249 t l b;
#X obj 335 326 s \$0_send_to_osc;
#X obj 445 359 noteout 1;
#X obj 451 295 list prepend;
#X obj 522 272 1;
#X obj 492 265 bng 15 250 50 0 empty empty empty 17 7 0 10 -262144
-1 -1;
#X obj 451 249 t l b;
#X obj 451 326 s \$0_send_to_osc;
#X obj 563 361 noteout 1;
#X obj 569 297 list prepend;
#X obj 640 274 1;
#X obj 610 267 bng 15 250 50 0 empty empty empty 17 7 0 10 -262144
-1 -1;
#X obj 569 251 t l b;
#X obj 569 328 s \$0_send_to_osc;
#X obj 691 360 noteout 1;
#X obj 697 296 list prepend;
#X obj 768 273 1;
#X obj 738 266 bng 15 250 50 0 empty empty empty 17 7 0 10 -262144
-1 -1;
#X obj 697 250 t l b;
#X obj 697 327 s \$0_send_to_osc;
#X obj 809 362 noteout 1;
#X obj 815 298 list prepend;
#X obj 886 275 1;
#X obj 856 268 bng 15 250 50 0 empty empty empty 17 7 0 10 -262144
-1 -1;
#X obj 815 252 t l b;
#X obj 815 329 s \$0_send_to_osc;
#X obj 925 362 noteout 1;
#X obj 931 298 list prepend;
#X obj 1002 275 1;
#X obj 972 268 bng 15 250 50 0 empty empty empty 17 7 0 10 -262144
-1 -1;
#X obj 931 252 t l b;
#X obj 931 329 s \$0_send_to_osc;
#X obj 1043 364 noteout 1;
#X obj 1049 300 list prepend;
#X obj 1120 277 1;
#X obj 1090 270 bng 15 250 50 0 empty empty empty 17 7 0 10 -262144
-1 -1;
#X obj 1049 254 t l b;
#X obj 1049 331 s \$0_send_to_osc;
#X obj 209 533 noteout 1;
#X obj 215 469 list prepend;
#X obj 286 446 1;
#X obj 256 439 bng 15 250 50 0 empty empty empty 17 7 0 10 -262144
-1 -1;
#X obj 215 423 t l b;
#X obj 215 500 s \$0_send_to_osc;
#X obj 327 535 noteout 1;
#X obj 333 471 list prepend;
#X obj 404 448 1;
#X obj 374 441 bng 15 250 50 0 empty empty empty 17 7 0 10 -262144
-1 -1;
#X obj 333 425 t l b;
#X obj 333 502 s \$0_send_to_osc;
#X obj 443 535 noteout 1;
#X obj 449 471 list prepend;
#X obj 520 448 1;
#X obj 490 441 bng 15 250 50 0 empty empty empty 17 7 0 10 -262144
-1 -1;
#X obj 449 425 t l b;
#X obj 449 502 s \$0_send_to_osc;
#X obj 561 537 noteout 1;
#X obj 567 473 list prepend;
#X obj 638 450 1;
#X obj 608 443 bng 15 250 50 0 empty empty empty 17 7 0 10 -262144
-1 -1;
#X obj 567 427 t l b;
#X obj 567 504 s \$0_send_to_osc;
#X obj 689 536 noteout 1;
#X obj 695 472 list prepend;
#X obj 766 449 1;
#X obj 736 442 bng 15 250 50 0 empty empty empty 17 7 0 10 -262144
-1 -1;
#X obj 695 426 t l b;
#X obj 695 503 s \$0_send_to_osc;
#X obj 807 538 noteout 1;
#X obj 813 474 list prepend;
#X obj 884 451 1;
#X obj 854 444 bng 15 250 50 0 empty empty empty 17 7 0 10 -262144
-1 -1;
#X obj 813 428 t l b;
#X obj 813 505 s \$0_send_to_osc;
#X obj 923 538 noteout 1;
#X obj 929 474 list prepend;
#X obj 1000 451 1;
#X obj 970 444 bng 15 250 50 0 empty empty empty 17 7 0 10 -262144
-1 -1;
#X obj 929 428 t l b;
#X obj 929 505 s \$0_send_to_osc;
#X obj 1041 540 noteout 1;
#X obj 1047 476 list prepend;
#X obj 1118 453 1;
#X obj 1088 446 bng 15 250 50 0 empty empty empty 17 7 0 10 -262144
-1 -1;
#X obj 1047 430 t l b;
#X obj 1047 507 s \$0_send_to_osc;
#X obj 211 221 channel;
#X text 222 624 send osc;
#X obj 112 301 print;
#X obj 329 223 channel;
#X obj 445 223 channel;
#X obj 563 225 channel;
#X obj 691 224 channel;
#X obj 809 226 channel;
#X obj 925 226 channel;
#X obj 1043 228 channel;
#X obj 1041 404 channel;
#X obj 923 402 channel;
#X obj 807 402 channel;
#X obj 689 400 channel;
#X obj 561 401 channel;
#X obj 443 399 channel;
#X obj 327 399 channel;
#X obj 209 397 channel;
#X connect 1 0 2 0;
#X connect 1 0 118 0;
#X connect 2 0 107 0;
#X connect 2 0 110 0;
#X connect 2 0 111 0;
#X connect 2 0 112 0;
#X connect 2 0 113 0;
#X connect 2 0 114 0;
#X connect 2 0 115 0;
#X connect 2 0 116 0;
#X connect 2 0 117 0;
#X connect 2 0 119 0;
#X connect 2 0 120 0;
#X connect 2 0 121 0;
#X connect 2 0 122 0;
#X connect 2 0 123 0;
#X connect 2 0 124 0;
#X connect 3 0 9 0;
#X connect 5 0 7 0;
#X connect 7 0 107 2;
#X connect 7 1 110 2;
#X connect 7 2 111 2;
#X connect 7 3 112 2;
#X connect 7 4 113 2;
#X connect 7 5 114 2;
#X connect 7 6 115 2;
#X connect 7 7 116 2;
#X connect 7 8 124 2;
#X connect 7 9 123 2;
#X connect 7 10 122 2;
#X connect 7 11 121 2;
#X connect 7 12 120 2;
#X connect 7 13 119 2;
#X connect 7 14 118 2;
#X connect 7 15 117 2;
#X connect 9 0 107 1;
#X connect 9 0 110 1;
#X connect 9 0 111 1;
#X connect 9 0 112 1;
#X connect 9 0 113 1;
#X connect 9 0 114 1;
#X connect 9 0 115 1;
#X connect 9 0 116 1;
#X connect 9 0 117 1;
#X connect 9 0 118 1;
#X connect 9 0 119 1;
#X connect 9 0 120 1;
#X connect 9 0 121 1;
#X connect 9 0 122 1;
#X connect 9 0 123 1;
#X connect 9 0 124 1;
#X connect 11 0 15 0;
#X connect 12 0 11 1;
#X connect 13 0 12 0;
#X connect 14 0 11 0;
#X connect 14 1 13 0;
#X connect 16 0 8 0;
#X connect 18 0 22 0;
#X connect 19 0 18 1;
#X connect 20 0 19 0;
#X connect 21 0 18 0;
#X connect 21 1 20 0;
#X connect 24 0 28 0;
#X connect 25 0 24 1;
#X connect 26 0 25 0;
#X connect 27 0 24 0;
#X connect 27 1 26 0;
#X connect 30 0 34 0;
#X connect 31 0 30 1;
#X connect 32 0 31 0;
#X connect 33 0 30 0;
#X connect 33 1 32 0;
#X connect 36 0 40 0;
#X connect 37 0 36 1;
#X connect 38 0 37 0;
#X connect 39 0 36 0;
#X connect 39 1 38 0;
#X connect 42 0 46 0;
#X connect 43 0 42 1;
#X connect 44 0 43 0;
#X connect 45 0 42 0;
#X connect 45 1 44 0;
#X connect 48 0 52 0;
#X connect 49 0 48 1;
#X connect 50 0 49 0;
#X connect 51 0 48 0;
#X connect 51 1 50 0;
#X connect 54 0 58 0;
#X connect 55 0 54 1;
#X connect 56 0 55 0;
#X connect 57 0 54 0;
#X connect 57 1 56 0;
#X connect 60 0 64 0;
#X connect 61 0 60 1;
#X connect 62 0 61 0;
#X connect 63 0 60 0;
#X connect 63 1 62 0;
#X connect 66 0 70 0;
#X connect 67 0 66 1;
#X connect 68 0 67 0;
#X connect 69 0 66 0;
#X connect 69 1 68 0;
#X connect 72 0 76 0;
#X connect 73 0 72 1;
#X connect 74 0 73 0;
#X connect 75 0 72 0;
#X connect 75 1 74 0;
#X connect 78 0 82 0;
#X connect 79 0 78 1;
#X connect 80 0 79 0;
#X connect 81 0 78 0;
#X connect 81 1 80 0;
#X connect 84 0 88 0;
#X connect 85 0 84 1;
#X connect 86 0 85 0;
#X connect 87 0 84 0;
#X connect 87 1 86 0;
#X connect 90 0 94 0;
#X connect 91 0 90 1;
#X connect 92 0 91 0;
#X connect 93 0 90 0;
#X connect 93 1 92 0;
#X connect 96 0 100 0;
#X connect 97 0 96 1;
#X connect 98 0 97 0;
#X connect 99 0 96 0;
#X connect 99 1 98 0;
#X connect 102 0 106 0;
#X connect 103 0 102 1;
#X connect 104 0 103 0;
#X connect 105 0 102 0;
#X connect 105 1 104 0;
#X connect 107 0 10 0;
#X connect 107 0 109 0;
#X connect 107 1 14 0;
#X connect 110 0 17 0;
#X connect 110 1 21 0;
#X connect 111 0 23 0;
#X connect 111 1 27 0;
#X connect 112 0 29 0;
#X connect 112 1 33 0;
#X connect 113 0 35 0;
#X connect 113 1 39 0;
#X connect 114 0 41 0;
#X connect 114 1 45 0;
#X connect 115 0 47 0;
#X connect 115 1 51 0;
#X connect 116 0 53 0;
#X connect 116 1 57 0;
#X connect 117 0 101 0;
#X connect 117 1 105 0;
#X connect 118 0 95 0;
#X connect 118 1 99 0;
#X connect 119 0 89 0;
#X connect 119 1 93 0;
#X connect 120 0 83 0;
#X connect 120 1 87 0;
#X connect 121 0 77 0;
#X connect 121 1 81 0;
#X connect 122 0 71 0;
#X connect 122 1 75 0;
#X connect 123 0 65 0;
#X connect 123 1 69 0;
#X connect 124 0 59 0;
#X connect 124 1 63 0;
