#N canvas 76 22 1311 852 10;
#X declare -lib mrpeach;
#X obj -329 41 inlet;
#X obj -289 40 inlet;
#X obj -248 39 inlet;
#X text -332 22 ticks;
#X obj 81 215 vradio 15 1 0 8 empty empty empty 0 -8 0 10 -262144 -1
-1 1;
#X obj -62 518 kick;
#X obj -193 790 outlet~;
#X obj -328 232 list prepend;
#X floatatom -158 296 5 0 0 0 - - -;
#X text -295 21 reset;
#X text -251 18 route osc info;
#X floatatom -37 126 5 0 0 0 - - -;
#X obj -165 519 s_mello_synth;
#X obj -329 135 channel-buffer;
#X obj 62 207 vsl 15 128 0 1 0 0 empty empty empty 0 -9 0 10 -262144
-1 -1 3200 1;
#X obj 98 208 vsl 15 128 0 1 0 0 empty empty empty 0 -9 0 10 -262144
-1 -1 5200 1;
#X obj -11 517 snare-wt~;
#X obj 74 517 s_phasor_synth;
#X obj -327 344 route 0 1 2 3 4;
#X obj -84 604 *~;
#X msg -124 377 stop;
#X obj -54 784 outlet;
#X text -43 751 out for osc;
#X obj -395 717 packOSC;
#X msg -458 538 send /percussion s "kick";
#X msg -449 475 send /percussion s "snare";
#X obj -206 531 list append;
#X msg -384 618 send /minstruments "m1" \$1 \$2;
#X msg -347 664 send /minstruments "m2" \$1 \$2;
#X obj -248 90 routeOSC /midi /i_number /p_instrument /v_instrument
;
#X obj -94 67 print instrumentinfo;
#X connect 0 0 13 0;
#X connect 1 0 13 1;
#X connect 1 0 20 0;
#X connect 2 0 29 0;
#X connect 2 0 30 0;
#X connect 4 0 8 0;
#X connect 4 0 7 1;
#X connect 5 0 19 0;
#X connect 7 0 18 0;
#X connect 12 0 19 0;
#X connect 13 0 7 0;
#X connect 14 0 19 1;
#X connect 15 0 12 1;
#X connect 16 0 19 0;
#X connect 17 0 19 0;
#X connect 18 1 12 0;
#X connect 18 1 27 0;
#X connect 18 2 5 0;
#X connect 18 2 24 0;
#X connect 18 3 16 0;
#X connect 18 3 25 0;
#X connect 18 4 17 0;
#X connect 18 4 28 0;
#X connect 19 0 6 0;
#X connect 20 0 12 0;
#X connect 20 0 17 0;
#X connect 23 0 21 0;
#X connect 24 0 23 0;
#X connect 25 0 23 0;
#X connect 27 0 23 0;
#X connect 28 0 23 0;
#X connect 29 0 13 2;
#X connect 29 1 4 0;
#X connect 29 2 11 0;
#X connect 29 2 12 1;
#X connect 29 3 14 0;
#X coords 0 -1 1 1 60 150 1 60 200;
