#N canvas 181 75 1170 776 10;
#X obj 46 22 inlet;
#X obj 51 521 mellosynth;
#X obj 51 561 outlet~;
#X obj 104 20 inlet;
#X obj 46 57 poly;
#X obj 124 561 outlet~;
#X obj 205 559 outlet~;
#X obj 278 559 outlet~;
#X obj 357 561 outlet~;
#X obj 430 561 outlet~;
#X obj 511 559 outlet~;
#X obj 584 559 outlet~;
#X obj 659 564 outlet~;
#X obj 732 564 outlet~;
#X obj 813 562 outlet~;
#X obj 886 562 outlet~;
#X obj 163 23 inlet;
#X obj 414 295 route 0 1 2 3 4 5 6 7 8 9 10 11;
#X obj 45 92 pack 0 0 0 0;
#X text 38 6 pitch;
#X text 100 0 velocity;
#X text 167 1 harmonicity-env;
#X obj 124 521 mellosynth;
#X obj 205 519 mellosynth;
#X obj 278 519 mellosynth;
#X obj 357 521 mellosynth;
#X obj 430 521 mellosynth;
#X obj 511 519 mellosynth;
#X obj 584 519 mellosynth;
#X obj 659 524 mellosynth;
#X obj 732 524 mellosynth;
#X obj 813 522 mellosynth;
#X obj 886 522 mellosynth;
#X connect 0 0 4 0;
#X connect 1 0 2 0;
#X connect 3 0 4 1;
#X connect 4 0 18 0;
#X connect 4 1 18 1;
#X connect 4 2 18 2;
#X connect 16 0 18 3;
#X connect 17 0 1 0;
#X connect 17 1 22 0;
#X connect 17 2 23 0;
#X connect 17 3 24 0;
#X connect 17 4 25 0;
#X connect 17 5 26 0;
#X connect 17 6 27 0;
#X connect 17 7 28 0;
#X connect 17 8 29 0;
#X connect 17 9 30 0;
#X connect 17 10 31 0;
#X connect 17 11 32 0;
#X connect 18 0 17 0;
#X connect 22 0 5 0;
#X connect 23 0 6 0;
#X connect 24 0 7 0;
#X connect 25 0 8 0;
#X connect 26 0 9 0;
#X connect 27 0 10 0;
#X connect 28 0 11 0;
#X connect 29 0 12 0;
#X connect 30 0 13 0;
#X connect 31 0 14 0;
#X connect 32 0 15 0;
