#N canvas 91 101 1299 832 10;
#N canvas 737 173 762 726 melloSynth 0;
#X obj 261 168 hsl 128 15 0 0.9 0 0 empty empty empty -2 -8 0 10 -262144
-1 -1 9000 1;
#X obj 258 229 moses 1;
#X floatatom 266 253 5 0 0 0 - - -;
#X obj 258 324 line~;
#X obj 258 300 pack 0 100;
#X obj 258 143 inlet;
#X obj 118 145 inlet;
#X obj 118 189 mtof;
#X text 107 122 midi value;
#X text 241 119 Harmonicity-Env max-0.9;
#X obj 118 377 outlet~;
#X obj 118 341 rjlib/s_buzz;
#X connect 0 0 1 0;
#X connect 1 0 2 0;
#X connect 1 0 4 0;
#X connect 3 0 11 1;
#X connect 4 0 3 0;
#X connect 5 0 0 0;
#X connect 6 0 7 0;
#X connect 7 0 11 0;
#X connect 11 0 10 0;
#X restore 82 449 pd melloSynth;
#X obj 82 268 % 127;
#X obj 157 397 r \$0-Harm;
#X obj 402 250 s \$0-Harm;
#X obj 82 550 outlet~;
#X obj 147 549 outlet~;
#N canvas 223 22 450 300 soundout 0;
#X obj 90 13 inlet~;
#X obj 91 55 *~;
#X obj 90 222 outlet~;
#X obj 160 222 outlet~;
#X obj 156 38 r~ \$0-adsrenv;
#X connect 0 0 1 0;
#X connect 1 0 2 0;
#X connect 1 0 3 0;
#X connect 4 0 1 1;
#X restore 83 496 pd soundout;
#X text 71 6 this synth takes note on and note off values;
#X obj 82 64 inlet;
#X obj 403 68 inlet;
#X text 399 41 harmonicity-env;
#X obj 82 106 unpack 0 0;
#X text 130 63 unpacks pitch \, velocity;
#X obj 179 341 s~ \$0-adsrenv;
#X obj 178 150 select 0;
#X obj 223 201 bng 15 250 50 0 empty empty empty 17 7 0 10 -262144
-1 -1;
#X text 249 200 attack;
#X obj 178 200 bng 15 250 50 0 empty empty empty 17 7 0 10 -262144
-1 -1;
#X text 146 180 release;
#X obj 179 308 vline~;
#X msg 179 262 0 100;
#X msg 223 240 1 20 \, 0.8 30;
#X connect 0 0 6 0;
#X connect 1 0 0 0;
#X connect 2 0 0 1;
#X connect 6 0 4 0;
#X connect 6 1 5 0;
#X connect 8 0 11 0;
#X connect 9 0 3 0;
#X connect 11 0 1 0;
#X connect 11 1 14 0;
#X connect 14 0 17 0;
#X connect 14 1 15 0;
#X connect 15 0 21 0;
#X connect 17 0 20 0;
#X connect 19 0 13 0;
#X connect 20 0 19 0;
#X connect 21 0 19 0;
