#N canvas 36 79 891 538 10;
#X obj 102 288 % 127;
#X obj 102 570 outlet~;
#X obj 167 569 outlet~;
#N canvas 223 22 450 300 soundout 0;
#X obj 90 13 inlet~;
#X obj 91 55 *~;
#X obj 90 222 outlet~;
#X obj 160 222 outlet~;
#X obj 156 38 r~ \$0-adsrenv;
#X connect 0 0 1 0;
#X connect 1 0 2 0;
#X connect 1 0 3 0;
#X connect 4 0 1 1;
#X restore 103 516 pd soundout;
#X text 91 26 this synth takes note on and note off values;
#X obj 102 84 inlet;
#X obj 102 126 unpack 0 0;
#X text 150 83 unpacks pitch \, velocity;
#X obj 199 361 s~ \$0-adsrenv;
#X obj 198 170 select 0;
#X obj 243 221 bng 15 250 50 0 empty empty empty 17 7 0 10 -262144
-1 -1;
#X text 269 220 attack;
#X obj 198 220 bng 15 250 50 0 empty empty empty 17 7 0 10 -262144
-1 -1;
#X text 166 200 release;
#X obj 199 328 vline~;
#X msg 243 260 1 40 \, 0.8 100;
#X msg 199 282 0 100;
#X obj 104 461 phasor~;
#X obj 103 348 mtof;
#X connect 0 0 18 0;
#X connect 3 0 1 0;
#X connect 3 1 2 0;
#X connect 5 0 6 0;
#X connect 6 0 0 0;
#X connect 6 1 9 0;
#X connect 9 0 12 0;
#X connect 9 1 10 0;
#X connect 10 0 15 0;
#X connect 12 0 16 0;
#X connect 14 0 8 0;
#X connect 15 0 14 0;
#X connect 16 0 14 0;
#X connect 17 0 3 0;
#X connect 18 0 17 0;
