#N canvas 447 97 1170 776 10;
#X obj 67 -111 inlet;
#X obj 135 -115 inlet;
#X text 59 -127 pitch;
#X text 105 -132 harmonicity-env;
#X obj 72 388 mellosynth;
#X obj 66 -13 poly 11 1;
#X obj 435 162 route 1 2 3 4 5 6 7 8 9 10 11;
#X obj 145 388 mellosynth;
#X obj 226 386 mellosynth;
#X obj 299 386 mellosynth;
#X obj 378 388 mellosynth;
#X obj 451 388 mellosynth;
#X obj 532 386 mellosynth;
#X obj 605 386 mellosynth;
#X obj 680 391 mellosynth;
#X obj 753 391 mellosynth;
#X obj 834 389 mellosynth;
#X obj 907 389 mellosynth;
#X obj 66 86 pack 0 0 0;
#X obj 406 571 outlet~;
#X obj 406 540 *~ 1;
#X connect 0 0 5 0;
#X connect 1 0 4 1;
#X connect 1 0 7 1;
#X connect 1 0 8 1;
#X connect 1 0 9 1;
#X connect 1 0 10 1;
#X connect 1 0 11 1;
#X connect 1 0 12 1;
#X connect 1 0 13 1;
#X connect 1 0 14 1;
#X connect 1 0 15 1;
#X connect 1 0 16 1;
#X connect 1 0 17 1;
#X connect 4 0 20 0;
#X connect 5 0 18 0;
#X connect 5 1 18 1;
#X connect 5 2 18 2;
#X connect 6 0 4 0;
#X connect 6 1 7 0;
#X connect 6 2 8 0;
#X connect 6 3 9 0;
#X connect 6 4 10 0;
#X connect 6 5 11 0;
#X connect 6 6 12 0;
#X connect 6 7 13 0;
#X connect 6 8 14 0;
#X connect 6 9 15 0;
#X connect 6 10 16 0;
#X connect 6 11 17 0;
#X connect 7 0 20 0;
#X connect 8 0 20 0;
#X connect 9 0 20 0;
#X connect 10 0 20 0;
#X connect 11 0 20 0;
#X connect 12 0 20 0;
#X connect 13 0 20 0;
#X connect 14 0 20 0;
#X connect 15 0 20 0;
#X connect 16 0 20 0;
#X connect 17 0 20 0;
#X connect 18 0 6 0;
#X connect 20 0 19 0;
