#N canvas 247 22 1360 843 10;
#X obj 77 -101 inlet;
#X text 69 -117 pitch;
#X obj 76 -3 poly 11 1;
#X obj 445 172 route 1 2 3 4 5 6 7 8 9 10 11;
#X obj 76 96 pack 0 0 0;
#X obj 416 581 outlet~;
#X obj 416 550 *~ 1;
#X obj 82 398 phasorsynth;
#X obj 155 398 phasorsynth;
#X obj 236 396 phasorsynth;
#X obj 309 396 phasorsynth;
#X obj 388 398 phasorsynth;
#X obj 461 398 phasorsynth;
#X obj 542 396 phasorsynth;
#X obj 615 396 phasorsynth;
#X obj 690 401 phasorsynth;
#X obj 763 401 phasorsynth;
#X obj 844 399 phasorsynth;
#X obj 917 399 phasorsynth;
#X connect 0 0 2 0;
#X connect 2 0 4 0;
#X connect 2 1 4 1;
#X connect 2 2 4 2;
#X connect 3 0 7 0;
#X connect 3 1 8 0;
#X connect 3 2 9 0;
#X connect 3 3 10 0;
#X connect 3 4 11 0;
#X connect 3 5 12 0;
#X connect 3 6 13 0;
#X connect 3 7 14 0;
#X connect 3 8 15 0;
#X connect 3 9 16 0;
#X connect 3 10 17 0;
#X connect 3 11 18 0;
#X connect 4 0 3 0;
#X connect 6 0 5 0;
#X connect 7 0 6 0;
#X connect 8 0 6 0;
#X connect 9 0 6 0;
#X connect 10 0 6 0;
#X connect 11 0 6 0;
#X connect 12 0 6 0;
#X connect 13 0 6 0;
#X connect 14 0 6 0;
#X connect 15 0 6 0;
#X connect 16 0 6 0;
#X connect 17 0 6 0;
#X connect 18 0 6 0;
